<svg width="48" height="41" viewBox="0 0 48 41" fill="none" xmlns="http://www.w3.org/2000/svg">
<path d="M42.5888 8.52618H37.5188V3.45618C37.5188 2.56018 37.1628 1.70016 36.5288 1.06616C35.8948 0.432162 35.0358 0.0761719 34.1388 0.0761719H13.8608C12.9638 0.0761719 12.1048 0.432162 11.4708 1.06616C10.8368 1.70016 10.4808 2.56018 10.4808 3.45618V8.52618H5.4108C4.0668 8.52618 2.7768 9.06019 1.8268 10.0102C0.875798 10.9612 0.341797 12.2512 0.341797 13.5952V37.2532C0.341797 38.1502 0.697802 39.0092 1.3318 39.6432C1.9658 40.2772 2.8248 40.6332 3.7218 40.6332H44.2788C45.1748 40.6332 46.0348 40.2772 46.6678 39.6432C47.3018 39.0092 47.6578 38.1502 47.6578 37.2532V13.5952C47.6578 12.2512 47.1238 10.9612 46.1728 10.0102C45.2228 9.06019 43.9328 8.52618 42.5888 8.52618ZM13.8608 3.45618H34.1388V8.52618H13.8608V3.45618ZM44.2788 37.2532H3.7218V22.0452H17.2408V30.4942H30.7598V22.0452H44.2788V37.2532ZM20.6198 22.0452H27.3798V27.1142H20.6198V22.0452ZM3.7218 18.6652V13.5952C3.7218 13.1472 3.89981 12.7172 4.21581 12.4002C4.53281 12.0832 4.9628 11.9052 5.4108 11.9052H42.5888C43.0368 11.9052 43.4668 12.0832 43.7838 12.4002C44.0998 12.7172 44.2788 13.1472 44.2788 13.5952V18.6652H3.7218Z" fill="#0D5C63"/>
</svg>
