<svg width="48" height="38" viewBox="0 0 48 38" fill="none" xmlns="http://www.w3.org/2000/svg">
<path d="M29.1416 8.62402H41.1385V12.069H29.1416V8.62402Z" fill="white"/>
<path d="M29.1416 17.2368H41.1385V20.6828H29.1416V17.2368Z" fill="white"/>
<path d="M29.1416 25.8506H41.1385V29.2956H29.1416V25.8506Z" fill="white"/>
<path d="M44.5669 0.0107422H3.43188C2.52288 0.0117422 1.65185 0.374752 1.00885 1.02075C0.36585 1.66675 0.00490625 2.54273 0.00390625 3.45673V34.4637C0.00490625 35.3777 0.36585 36.2538 1.00885 36.8998C1.65185 37.5458 2.52288 37.9087 3.43188 37.9097H44.5669C45.4759 37.9077 46.3499 37.5447 46.9899 36.8987C47.6299 36.2527 47.9899 35.3777 47.9999 34.4637V3.45673C47.9899 2.54273 47.6299 1.66675 46.9899 1.02075C46.3499 0.374752 45.4759 0.0117422 44.5669 0.0107422ZM3.43188 3.45673H22.2859V34.4637H3.43188V3.45673ZM25.7139 34.4637V3.45673H44.5669L44.5709 34.4637H25.7139Z" fill="white"/>
</svg>
