<svg width="48" height="48" viewBox="0 0 48 48" fill="none" xmlns="http://www.w3.org/2000/svg">
<path d="M46.2001 9.48901V1.89697C46.2001 0.847973 45.3421 0 44.2801 0H3.72001C2.65801 0 1.80003 0.847973 1.80003 1.89697V9.48901C0.798028 9.54801 4.02721e-05 10.372 4.02721e-05 11.38V19.185C-0.00395973 20.62 0.290054 22.04 0.864054 23.358C1.12205 23.962 1.44003 24.531 1.80003 25.07V45.518C1.80003 46.561 2.65801 47.415 3.72001 47.415H44.2801C45.3421 47.415 46.2001 46.567 46.2001 45.518V25.07C46.5661 24.53 46.879 23.956 47.136 23.358C47.706 22.036 48 20.631 48 19.185V11.38C48 10.372 47.2021 9.54801 46.2001 9.48901ZM6.12004 4.26703H41.88V9.48297H6.12004V4.26703ZM27.8401 43.153H20.16V36.983H27.8401V43.153ZM41.904 43.153H31.68V35.087C31.68 34.038 30.822 33.19 29.76 33.19H18.24C17.178 33.19 16.32 34.038 16.32 35.087V43.153H6.12004V28.798C6.29404 28.881 6.47401 28.964 6.66001 29.036C7.99801 29.593 9.42001 29.871 10.884 29.871C12.348 29.871 13.764 29.593 15.108 29.036C15.936 28.692 16.716 28.253 17.43 27.726C17.442 27.72 17.454 27.72 17.466 27.726C18.182 28.255 18.9621 28.695 19.7881 29.036C21.1261 29.593 22.5481 29.871 24.0121 29.871C25.4761 29.871 26.8921 29.593 28.2361 29.036C29.0641 28.692 29.844 28.253 30.558 27.726C30.57 27.72 30.582 27.72 30.594 27.726C31.31 28.255 32.0901 28.695 32.9161 29.036C34.2541 29.593 35.6761 29.871 37.1401 29.871C38.6041 29.871 40.0201 29.593 41.3641 29.036C41.5441 28.958 41.724 28.881 41.904 28.798V43.153ZM43.68 19.185C43.68 22.729 40.7401 25.604 37.1221 25.604C34.6741 25.604 32.538 24.294 31.41 22.35C31.236 22.054 30.924 21.87 30.576 21.87H30.54C30.198 21.87 29.88 22.054 29.706 22.35C29.13 23.342 28.299 24.165 27.297 24.737C26.295 25.308 25.157 25.607 24 25.604C21.558 25.604 19.428 24.3 18.3 22.362C18.12 22.06 17.7961 21.87 17.4421 21.87C17.0881 21.87 16.758 22.06 16.584 22.362C16.005 23.35 15.1731 24.17 14.1711 24.739C13.1691 25.308 12.034 25.606 10.878 25.604C7.26003 25.604 4.32005 22.729 4.32005 19.185V13.78C4.32005 13.762 4.33202 13.75 4.35002 13.75H43.6501C43.6681 13.75 43.68 13.762 43.68 13.78V19.185Z" fill="#0D5C63"/>
</svg>
